<?xml version="1.0" encoding="utf-8"?>
<!-- Generator: Adobe Illustrator 19.1.0, SVG Export Plug-In . SVG Version: 6.00 Build 0)  -->
<svg version="1.1" id="Layer_1" xmlns="http://www.w3.org/2000/svg" xmlns:xlink="http://www.w3.org/1999/xlink" x="0px" y="0px"
	 viewBox="0 0 360 360" style="enable-background:new 0 0 360 360;" xml:space="preserve">
<path d="M274.4,211.5c0,20.5-1.1,35-3.5,49.4c-0.3,1.6-1.1,3.3-2.3,4.4c-1.4,1.4-3.4,1.3-5.2,0.4c-2.1-1.1-2.8-2.9-2.5-5.2
	c0.6-4.9,1.4-9.8,1.9-14.8c1.8-16.5,2.3-33,0.6-49.5c-0.9-9.4-2.1-18.8-3.7-28.1c-5-28.5-20.2-49.7-47.1-61.1
	c-44-18.6-99.1,6.1-108.6,58.6c-1.7,9.1-1.6,18.3,0.3,27.5c2.1,10.5,2.9,21.3,2.2,32c-0.1,1.5-0.2,3-0.6,4.5
	c-0.6,2.4-2.8,3.9-5.2,3.6c-2.4-0.3-4.2-2.1-4.5-4.6c0-0.3,0-0.7,0-1c1.6-11.6-0.4-22.9-2.1-34.4c-3.9-26.3,3.1-49.7,19.8-70.1
	c14.8-18,33.9-28.7,57.1-31.5c44.9-5.4,87,24.6,97.1,67.4C272.7,178.2,274.3,197.7,274.4,211.5z"/>
<path d="M188,59.1C123.8,58.3,74.8,99.4,63.5,156c-0.2,1.1-0.4,2.3-0.7,3.4c-0.8,2.8-3.2,4.4-5.7,3.9c-2.7-0.5-4.5-2.7-4-5.5
	c0.8-4.5,1.7-9.1,3-13.5c13.1-46.9,53.2-83.6,101.2-92.8c67-12.8,133.9,29.5,151.1,95.7c1.9,7.4,3.1,15.1,4.4,22.7
	c0.6,3.6-1.1,6-4.2,6.3c-3.1,0.3-5.1-1.5-5.7-5.1c-2-12.5-4.2-25.1-9.2-36.8c-17.3-40.3-47.4-65-90.7-73.3
	C197.1,59.8,191.1,59.4,188,59.1z"/>
<path d="M211.5,217.2c-0.5,48.3-15.1,91.8-44.2,130.4c-0.6,0.8-1.2,1.7-2,2.4c-1.9,1.7-4.4,1.7-6.3,0.2c-1.9-1.5-2.5-4.1-1.3-6.2
	c0.5-1,1.3-1.9,2-2.8c21-27.7,34.3-58.6,39.7-92.9c3.6-23.2,3-46.3-1.4-69.3c-0.3-1.8-0.7-3.6-1.3-5.3c-2-5.4-5.9-8.6-11.7-9.7
	c-9.2-1.6-17.9,4.4-19,13.3c-0.3,2.2,0.1,4.6,0.6,6.8c3.2,16.2,4.1,32.5,2.5,49c-0.7,6.6-1.8,13.3-3,19.8c-0.5,2.9-2.5,4.4-5.1,4.3
	c-2.3,0-4.2-1.6-4.7-3.9c-0.2-0.9-0.1-1.8,0.1-2.7c3.1-14.7,4.2-29.5,3-44.4c-0.6-7.3-1.9-14.6-3.1-21.9
	c-2.6-15.8,10.8-31.1,26.7-30.4c11.9,0.6,23.1,10.4,25,22.3C210,189.7,211.8,203.3,211.5,217.2z"/>
<path d="M39.8,179.1c0.3,10,1.7,19.8,3.4,29.6c2.3,13.8-0.9,26.3-9.3,37.5c-1,1.3-2,2.5-3.3,3.5c-2,1.6-4.5,1.3-6.3-0.4
	c-1.7-1.6-2-4-0.8-6c0.5-0.9,1.3-1.6,1.9-2.4c6.4-7.7,9.5-16.6,8.4-26.7c-0.5-4.9-1.6-9.8-2.2-14.7c-3.3-25-0.5-49.4,8.6-72.8
	C55.5,87.3,82.4,58.5,121,41.1c23.8-10.8,49-14.6,75-12.2c2.2,0.2,4.4,0.4,6.5,0.8c2.7,0.6,4.2,2.8,3.9,5.3c-0.3,2.5-2.3,4.5-5,4.4
	c-3.2-0.1-6.4-0.6-9.7-0.8c-38.7-2.3-73,8.8-102.6,33.8C62.6,95,47.1,124,41.7,158.4C40.6,165.2,40.4,172.2,39.8,179.1z"/>
<path d="M337.7,220.1c-0.9,11.1-1.9,24.7-2.9,38.2c-0.2,2.3-1.1,4-3.3,4.9c-3.5,1.4-6.8-1.2-6.6-5.1c0.2-3.9,0.7-7.8,1.1-11.7
	c1.5-16.2,1.9-32.5,0.6-48.8c-1-12.6-2.5-25.3-4.4-37.8c-4.9-31.3-18.1-58.7-40.8-81.1c-15.4-15.1-33.4-26-53.8-33.1
	c-1.1-0.4-2.2-0.7-3.2-1.2c-2.2-1.2-3.2-3.5-2.5-5.9c0.6-2.3,2.8-3.7,5.3-3.4c0.8,0.1,1.6,0.3,2.3,0.6c50.9,18.3,84,53.4,99,105.3
	c4.6,16.1,6.5,32.8,7.8,49.5C336.8,199.6,337.1,208.6,337.7,220.1z"/>
<path d="M181,111.8c1.7,0.1,3.9,0.1,6.1,0.3c2.9,0.3,4.8,2.4,4.7,5c-0.1,2.7-2.3,4.9-5.3,4.8c-7.4-0.3-14.7,0.4-21.9,2.6
	c-26.2,8-42.8,32.1-40.6,59.4c0.4,4.6,1.6,9.1,2.1,13.6c5.9,46.5-8.5,85.7-42.7,117.7c-0.5,0.5-1,0.9-1.6,1.3
	c-2.2,1.3-4.7,1-6.3-0.8c-1.8-1.9-1.8-4.5-0.1-6.6c0.7-0.9,1.7-1.6,2.5-2.4c21.7-20,34.9-44.5,38.9-73.8c1.8-13,1.2-26-1.5-38.9
	c-7.3-35.4,14.8-70.9,49.7-80c2.6-0.7,5.2-1.2,7.8-1.6C175.4,112.1,178,112.1,181,111.8z"/>
<path d="M253.5,213.3c-0.4,49.4-11.6,92-34.1,131.5c-0.5,0.8-0.9,1.6-1.4,2.4c-1.7,2.2-4.2,2.8-6.4,1.5c-2.2-1.2-3.2-3.7-2.2-6.3
	c0.4-1,0.9-1.9,1.5-2.7c14.7-25.6,24.6-52.9,29.4-82c3.7-22.2,4.4-44.6,1.7-67c-1.1-9.1-2.4-18.3-4.6-27.2
	c-3.1-12.4-10.3-22.3-20.6-29.9c-2-1.5-4.3-2.8-6.4-4.2c-2.8-1.8-3.6-4.6-2.1-7.1c1.5-2.5,4.4-3.2,7.3-1.5
	c16.1,9.6,26.9,23.4,32,41.4c2.7,9.5,3.7,19.2,4.7,28.9C253,199.8,253.2,208.5,253.5,213.3z"/>
<path d="M182,6.7c25.7,0.6,50.2,6.1,73.4,17c1.1,0.5,2.3,1.1,3.3,1.8c1.9,1.4,2.4,3.8,1.4,5.9c-1.1,2.2-3.3,3.4-5.7,2.7
	c-1.1-0.3-2.1-0.8-3.2-1.3c-24.5-11.5-50.3-17-77.3-15.3c-49.4,3.1-89.9,23.9-120.7,63c-0.9,1.2-1.8,2.4-2.7,3.6
	c-1.9,2.2-4.7,2.6-6.8,1c-2.3-1.7-3-4.5-1.1-7c3.1-4.2,6.3-8.3,9.7-12.2c27.5-30.7,61.5-49.7,102.2-56.3
	C163.5,8.1,172.8,7.7,182,6.7z"/>
<path d="M295.5,217.1c-0.2,35.9-6.5,70.7-19,104.4c-0.3,0.9-0.6,1.8-1,2.6c-1.3,2.3-3.9,3.2-6.3,2.3c-2.3-0.9-3.6-3.5-2.9-6
	c0.8-2.6,1.9-5.2,2.8-7.8c11.6-32.9,17.1-66.8,16.3-101.6c-0.4-16.9-2.3-33.6-5.7-50.2c-2.8-14-8.2-26.8-16.4-38.5
	c-0.5-0.7-1.1-1.5-1.4-2.4c-0.8-2.2,0-4.5,1.9-5.8c1.9-1.3,4.3-1.1,6.1,0.5c0.7,0.7,1.3,1.6,1.9,2.4c7.7,11,13.2,23,16.4,36
	c3.4,13.9,5.2,28.1,6.3,42.4C295,202.6,295.2,209.9,295.5,217.1z"/>
<path d="M50.2,287.7c-2.7-0.2-4.3-1-5.2-2.8c-1-1.8-0.8-3.6,0.4-5.2c0.6-0.8,1.5-1.5,2.2-2.1c15.1-12.9,24.4-29,27.4-48.7
	c1.3-8.5,1-17-0.6-25.5c-7.8-42.5,4.4-78.4,36.4-107.4c0.7-0.6,1.4-1.2,2.2-1.7c2.2-1.4,4.9-1,6.6,0.9c1.6,1.9,1.5,4.7-0.2,6.6
	c-0.5,0.6-1.2,1.1-1.8,1.6c-20.1,17.2-32,38.9-35,65.1c-1.2,10-0.4,20,1.4,29.9C90,232.9,80,261.9,54,285.2
	C52.8,286.3,51.2,287.1,50.2,287.7z"/>
<path d="M190.6,217.4c-0.8,47.8-16.4,90.1-47.4,126.6c-0.5,0.6-1.1,1.2-1.7,1.7c-1.9,1.4-4.7,1.2-6.4-0.4c-1.7-1.6-2.1-4-0.9-6
	c0.5-0.9,1.2-1.7,1.9-2.5c22.7-26.5,36.9-57,42.4-91.4c3.3-20.5,2.9-40.9-1-61.3c-0.2-1.2-0.5-2.5-0.6-3.8c-0.2-2.6,1.4-4.8,3.9-5.4
	c2.4-0.6,4.9,0.7,5.7,3.2c0.6,1.6,0.8,3.4,1.1,5.1C189.5,194.5,190.7,205.9,190.6,217.4z"/>
<path d="M354.5,174.5c0,2.7,0.1,5.3,0,8c-0.1,3.6-2.2,5.8-5.1,5.7c-3-0.1-4.9-2.3-4.9-5.9c0.1-10.7-0.7-21.2-2.7-31.7
	c-5.2-27.1-16.1-51.7-33.6-73.1c-9-11.1-19.3-20.8-30.9-29.2c-0.8-0.6-1.7-1.2-2.5-1.9c-2-1.9-2.3-4.4-0.8-6.6
	c1.4-2.1,4.1-2.7,6.5-1.5c0.7,0.4,1.4,0.9,2,1.4c34.9,25.7,57.4,59.5,67.5,101.6C352.7,152.2,354,163.3,354.5,174.5z"/>
<path d="M232.6,208.3c0,2.2,0,4.4,0,6.6c0,4.4-1.9,6.9-5.1,6.8c-3.1-0.1-5-2.4-5-6.6c-0.1-13.7-1.5-27.2-4.1-40.6
	c-1.3-6.6-3.3-12.9-7.7-18.2c-9.5-11.5-21.9-15.6-36.3-12.6c-14.5,3-23.9,11.9-28.2,26.1c-0.3,1-0.4,2-0.8,3c-1,2.7-3.4,3.9-6.1,3.3
	c-2.4-0.6-4-3-3.5-5.6c0.5-2.5,1.2-4.9,2.1-7.3c6.8-17.3,24.7-31.9,47.5-30.1c19,1.5,37.1,16.2,41.7,34.9
	C230.5,181.1,231.7,194.7,232.6,208.3z"/>
<path d="M148.9,215.6c-1.1,44-16.2,80.7-46.8,111c-0.7,0.7-1.5,1.5-2.3,2c-2.1,1.3-4.7,1-6.3-0.8c-1.7-1.8-1.9-4.3-0.3-6.3
	c0.6-0.8,1.4-1.5,2.2-2.2c22.3-21.8,36.4-48,41.6-78.8c2.3-13.6,2.3-27.3,0.7-41.1c-0.2-1.9-0.2-3.7,1.2-5.2
	c1.4-1.5,3.2-1.9,5.1-1.4c2.2,0.6,3.4,2.4,3.6,4.6C148,203.8,148.5,210.3,148.9,215.6z"/>
<path d="M32.5,98.5c3.3-0.1,5.7,3.1,4.8,6.5c-0.4,1.3-1,2.6-1.7,3.8c-12.1,24.7-17.4,50.7-16.3,78.1c0.4,10.2,2,20.2,4.3,30.1
	c0.2,0.7,0.4,1.3,0.5,2c0.4,3.1-1.2,5.4-3.9,6c-2.5,0.5-5-1-5.7-3.8c-1-4-2-8.1-2.7-12.1c-6-37.1-0.9-72.6,15.7-106.4
	C28.6,100.4,29.9,98.7,32.5,98.5z"/>
<path d="M184.3,70c22.5,0.4,44.9,7.9,64.8,23c0.9,0.7,1.9,1.4,2.7,2.2c1.9,1.9,2,4.6,0.5,6.6c-1.6,2-4.2,2.5-6.5,1.2
	c-0.8-0.5-1.5-1.1-2.2-1.7c-20.9-16.2-44.6-23.3-70.9-20.9c-10.6,1-20.9,3.6-30.7,7.9c-1,0.5-2.1,0.9-3.3,1
	c-2.4,0.3-4.3-0.9-5.2-3.2c-0.8-2.1-0.1-4.4,1.9-5.8c0.8-0.5,1.6-0.9,2.5-1.3C151,73.3,167.1,70,184.3,70z"/>
<path d="M230.8,245.8c-1.9,16.5-6,33.6-12,50.3c-6.6,18.4-15.3,35.8-26.2,52.1c-0.6,1-1.3,2-2.1,2.8c-1.6,1.6-4.2,1.7-6.1,0.5
	c-2-1.4-2.8-3.8-1.8-6.1c0.5-1,1.2-2,1.8-2.9c17.9-26.9,29.6-56.2,35-88c0.6-3.5,1-7.1,1.5-10.6c0.5-3.9,2.5-5.8,5.7-5.4
	C229.7,238.7,231.2,240.9,230.8,245.8z"/>
<path d="M306.5,219.4c-0.3-6.6-0.5-13.1-0.8-19.7c-0.2-4.4,1.5-6.9,4.8-7c3.2-0.1,5.1,2,5.3,6.3c0.8,18.5,0.5,36.9-1.7,55.3
	c-1.7,14.3-4.3,28.5-7.9,42.5c-0.3,1.1-0.5,2.3-1,3.3c-1,2.1-3.3,3.2-5.5,2.7c-2.3-0.5-4-2.6-3.9-5c0-1,0.3-2,0.6-3
	C302.8,270,306.2,244.9,306.5,219.4z"/>
<path d="M65,216.5c-0.7,20.2-7.8,37.3-22.5,51.1c-0.8,0.8-1.7,1.6-2.7,2.1c-2.1,1.1-4.5,0.6-6-1.1c-1.5-1.7-1.7-4.2-0.3-6.1
	c0.7-0.9,1.6-1.6,2.4-2.4c14-13.1,20.4-29.1,18.6-48.2c-0.7-7.3-2.1-14.6-3.1-21.9c-0.2-1.7-0.4-3.5-0.3-5.2
	c0.1-2.9,2.2-4.8,4.8-4.9c2.5-0.1,4.6,1.6,5,4.3c0.4,3.1,0.4,6.2,0.9,9.3c0.8,5.9,1.8,11.8,2.7,17.7C64.8,213,64.9,214.9,65,216.5z"
	/>
<path d="M116.8,339.3c-3.8-0.1-6-4.2-4.1-7.5c0.5-0.9,1.3-1.6,2-2.4c14.3-15,25.4-32.2,33.1-51.4c0.4-1,0.7-2,1.3-2.8
	c1.3-1.9,3.7-2.7,5.8-1.9c2.1,0.7,3.5,2.8,3.2,5.2c-0.1,1.1-0.5,2.2-1,3.3c-8.4,20.5-20.2,38.8-35.4,54.9
	C119.7,338.7,118.5,339.3,116.8,339.3z"/>
<path d="M64.2,303.3c-2.7-0.1-4.3-0.9-5.3-2.7c-1-1.8-0.8-3.6,0.4-5.2c0.5-0.7,1.3-1.3,2-1.9c12.5-10.6,21.9-23.4,28-38.5
	c0.3-0.9,0.7-1.7,1.1-2.5c1.3-2.1,3.7-2.9,6-2.1c2.2,0.8,3.6,3.1,3.1,5.6c-0.2,1-0.6,2-1,2.9c-6.9,16.5-17.1,30.6-30.7,42.2
	C66.6,302,65.1,302.8,64.2,303.3z"/>
<path d="M265.2,287.8c-0.2,0.9-0.5,2-0.8,3.1c-4.4,15.7-10,30.9-17.1,45.5c-0.4,0.9-0.9,1.9-1.5,2.7c-1.4,1.9-4.1,2.5-6.2,1.5
	c-2.1-1.1-3.2-3.5-2.5-5.8c0.3-0.9,0.7-1.7,1.1-2.5c6.8-14.4,12.4-29.3,16.7-44.6c0.3-1,0.5-2,1-2.9c1.1-2,3.5-2.8,5.7-2.1
	C263.8,283.3,265.3,285.4,265.2,287.8z"/>
</svg>
