<?xml version="1.0" encoding="utf-8"?>
<!-- Generator: Adobe Illustrator 19.1.0, SVG Export Plug-In . SVG Version: 6.00 Build 0)  -->
<svg version="1.1" id="Layer_1" xmlns="http://www.w3.org/2000/svg" xmlns:xlink="http://www.w3.org/1999/xlink" x="0px" y="0px"
	 viewBox="0 0 72 72" style="enable-background:new 0 0 72 72;" xml:space="preserve">
<style type="text/css">
	.st0{fill:#1A4683;}
	.st1{fill:#FFFFFF;}
</style>
<circle class="st0" cx="35.8" cy="36.6" r="33.8"/>
<path class="st1" d="M30.4,30.5c-1,0-1.9,0-2.8,0c0-2.3-0.2-4.7,1-6.8c1.8-3.3,5.5-5,9.3-4.2c3.5,0.7,6.3,3.8,6.6,7.5
	c0,0.2,0,0.4,0,0.6c0,2.7,0,5.4,0,8.1c0,0.2,0,0.3,0,0.5c0.4,0,0.7,0,1,0c0.3,0,0.5,0.1,0.6,0.3c1.5,2.2,2.3,4.6,2.2,7.3
	c-0.1,5.9-4.2,10.7-10,11.9c-6.7,1.4-13.5-3.3-14.5-10c-0.5-3.3,0.1-6.3,2-9.1c0.2-0.3,0.4-0.4,0.8-0.4c4.8,0,9.7,0,14.5,0
	c0.2,0,0.3,0,0.5,0c0-0.1,0-0.2,0-0.3c0-2.8,0-5.6,0-8.4c0-3-2.6-5.5-5.6-5.5c-3,0-5.5,2.4-5.6,5.4C30.4,28.5,30.4,29.5,30.4,30.5z
	 M36,41.8c-1.2,0-2.2,0.8-2.6,1.9c-0.4,1.2-0.1,2.4,0.9,3.1c0.2,0.2,0.3,0.4,0.3,0.7c0,1,0,2,0,2.9c0,0.5,0.1,0.9,0.5,1.2
	c0.4,0.4,0.9,0.4,1.4,0.2c0.5-0.2,0.8-0.7,0.9-1.3c0-1.1,0-2.1,0-3.2c0-0.3,0.1-0.4,0.3-0.6c1-0.8,1.4-1.9,1-3.1
	C38.3,42.6,37.2,41.8,36,41.8z"/>
</svg>
