<?xml version="1.0" encoding="utf-8"?>
<!-- Generator: Adobe Illustrator 19.1.0, SVG Export Plug-In . SVG Version: 6.00 Build 0)  -->
<svg version="1.1" id="Layer_1" xmlns="http://www.w3.org/2000/svg" xmlns:xlink="http://www.w3.org/1999/xlink" x="0px" y="0px"
	 viewBox="0 0 360 360" style="enable-background:new 0 0 360 360;" xml:space="preserve">
<style type="text/css">
	.st0{fill:#1A4683;}
	.st1{fill:#FFFFFF;}
</style>
<circle class="st0" cx="188.4" cy="177.1" r="50"/>
<path class="st1" d="M180.5,168.1c-1.5,0-2.8,0-4.2,0c0-3.5-0.3-6.9,1.5-10.1c2.7-4.9,8.1-7.4,13.7-6.3c5.2,1.1,9.3,5.6,9.8,11
	c0,0.3,0,0.6,0,0.9c0,4,0,8,0,12c0,0.2,0,0.5,0,0.8c0.5,0,1,0,1.5,0c0.4,0,0.7,0.1,1,0.5c2.2,3.2,3.4,6.8,3.3,10.8
	c-0.2,8.7-6.1,15.8-14.7,17.6c-9.9,2-19.9-4.9-21.5-14.8c-0.8-4.8,0.2-9.3,2.9-13.4c0.3-0.4,0.6-0.6,1.2-0.6c7.1,0,14.3,0,21.4,0
	c0.3,0,0.5,0,0.8,0c0-0.2,0-0.3,0-0.4c0-4.1,0-8.2,0-12.4c-0.1-4.5-3.8-8.1-8.3-8.1c-4.5,0-8.2,3.6-8.3,8
	C180.5,165.2,180.5,166.6,180.5,168.1z M188.8,184.8c-1.7,0-3.3,1.1-3.9,2.7c-0.6,1.7-0.1,3.5,1.4,4.6c0.4,0.3,0.5,0.6,0.5,1
	c0,1.5,0,2.9,0,4.4c0,0.7,0.2,1.3,0.8,1.8c0.6,0.5,1.4,0.7,2.1,0.3c0.8-0.4,1.2-1,1.3-1.9c0-1.6,0-3.1,0-4.7c0-0.4,0.1-0.6,0.4-0.9
	c1.5-1.1,2-2.9,1.4-4.6C192.2,185.9,190.6,184.8,188.8,184.8z"/>
</svg>
